<?xml version="1.0" encoding="UTF-8"?>
<svg id="Layer_1" xmlns="http://www.w3.org/2000/svg" version="1.1" viewBox="0 0 360 360">
  <!-- Generator: Adobe Illustrator 30.3.0, SVG Export Plug-In . SVG Version: 2.1.3 Build 182)  -->
  <defs>
    <style>
      .st0 {
        fill: #eac194;
      }

      .st1 {
        fill: #5fd6bf;
      }

      .st2 {
        fill: #e3d5b4;
      }

      .st3 {
        fill: #665f46;
      }

      .st4 {
        fill: #fff;
      }

      .st5 {
        fill: #348979;
      }

      .st6 {
        fill: #8dfce6;
      }

      .st7 {
        fill: #977b55;
      }
    </style>
  </defs>
  <path class="st0" d="M161.42,87.77s7.54,9.89,11.84,11.64l-3.16,4.91s-11.64-7.2-14.4-15.14l5.72-1.41Z"/>
  <path class="st3" d="M160.75,89.5s5.64,9.31,11.21,11.55l-.88.88s-7.41-5.16-11.14-12.16l.82-.27Z"/>
  <path class="st3" d="M161.42,87.77l-5.72,1.41c.39,1.12.97,2.23,1.66,3.31,1.14-.82,3.33-2.1,5.97-2.34-1.16-1.4-1.91-2.38-1.91-2.38Z"/>
  <path class="st3" d="M155.77,90.73s6.68,11.13,13.68,13.85l.54-1.09s-8.59-4.19-13.21-13.57l-1.01.81Z"/>
  <path class="st2" d="M160.21,91.91s6.54,8.36,9.85,9.68c0,0-6.7-2.07-9.85-9.68Z"/>
  <path class="st3" d="M173.26,99.41c-.64-.26-1.36-.72-2.11-1.28-1.68,1.36-2.77,3.21-3.4,4.59,1.4,1.01,2.35,1.6,2.35,1.6l3.16-4.91Z"/>
  <path class="st2" d="M164.18,92.41s4.96,6.21,8.11,7.2c0,0-5.05-.25-8.11-7.2Z"/>
  <path class="st0" d="M160.42,73.51c-15.08-2.69-31.96,5.4-36.09,9.89-4.13,4.49-16.82,15.68-16.96,27.15s-.3,24.52,5.68,29.91c.39.36.41.97.08,1.38l-6.83,8.36c-.33.4-.32.97,0,1.37l2.07,2.5c.3.36.33.86.09,1.26l-50.77,82.18c-.34.56-.42,1.23-.21,1.85.29.85.65,2.08.65,2.9,0,1.35,2.35,9.48,3.92,11.97,1.57,2.49,4.2,2.21,6.91,1.71,2.71-.5,13.97-2.78,13.97-2.78,0,0,4.42-.93,4.49-4.2.07-3.28-1-5.49.71-10.05s6.34-13.47,9.62-15.32c3.28-1.85,9.69-3.99,10.33-5.92s-.71-12.12-.71-14.61,1.21-7.7,6.13-9.48c4.92-1.78,11.12-3.21,13.18-6.7,1.66-2.8,4.92-11.16,6.15-14.35.26-.67,1.04-.95,1.67-.61l5.06,2.75c.67.36,1.51.09,1.84-.59l6.42-13.32s15.49-1.03,17.56-2.17c2.07-1.14,20.95-68.08,20.95-68.08,0,0-10.83-14.3-25.91-16.99ZM163.38,111.02c-6.38,0-11.56-5.18-11.56-11.56s5.18-11.56,11.56-11.56,11.56,5.18,11.56,11.56-5.18,11.56-11.56,11.56Z"/>
  <path class="st7" d="M167.35,110.31c-1.24.46-2.57.72-3.97.72-3.58,0-6.78-1.63-8.9-4.19,3.36,20.92-4.78,52.54-4.78,52.54,2.76,1.1,10.19.15,14.62-.56l.17-28.6s.18-10.54,2.88-19.9Z"/>
  <path class="st7" d="M174.56,89.94s2.85,4.93,2.85,6.68,6.57-3.51,6.57-3.51l-5.7-5.81s.1,2.39-4.18,2.28"/>
  <path class="st3" d="M152.04,106.43s3.65,6.84,15.6,5.23l-.72,1.08s-11.23,1.89-14.89-6.31Z"/>
  <path class="st3" d="M112.52,131.88s-5.75-22.08,9.95-40.59c15.71-18.5,36.23-13.68,44.16-11.51s14.09,12.01,14.09,13.88l3.48-2.37s-11.66-14-24.26-14.62c-12.6-.62-24.1,0-33.43,9.02s-20.68,26.28-14,46.18Z"/>
  <path class="st2" d="M135.48,78.58s16.28-5.38,27.36-2.21,18.34,10.93,22.12,14.7l.93-.4s-11.43-11.73-23.13-14.9c-11.69-3.17-27.28,2.8-27.28,2.8Z"/>
  <path class="st3" d="M142.82,171.4l5-10.65s12.34.4,17.09-1.08l-.37-1.93s-9.57,2.23-17.85,1.02l-3.88,12.64Z"/>
  <path class="st1" d="M301.46,216.03s3.68-21.81-16.55-44.14c-16.31-18.01-52.22-68.05-52.22-68.05,0,0-19.06-24.93-43.92-14.49,0,0-14.6,5.13-19.31,15.23-4.71,10.09-4.97,25.63-4.97,25.63l-.52,90.46s-2.22,19.45,7.44,32.24c9.66,12.79,64.48,84.72,64.48,84.72,0,0,14.16,21.8,40.86,13.58,26.69-8.22,24.34-34.59,24.34-34.59l.37-100.58ZM197.24,112.59c-3.17.59-6.23-1.58-6.84-4.84-.61-3.26,1.47-6.38,4.64-6.97,3.17-.59,6.23,1.58,6.84,4.84.61,3.26-1.47,6.38-4.64,6.97Z"/>
  <path class="st2" d="M144.18,55.71s2.65,14.72,5.13,17.14l-1.47.28s-4-10.55-3.67-17.43Z"/>
  <polygon class="st6" points="208.7 99.88 217.86 97.31 215.5 95.96 212.07 97.18 208.7 99.88"/>
  <polygon class="st6" points="205.07 107.27 223.37 101.13 224.5 102.93 205.05 109.3 205.07 107.27"/>
  <polygon class="st6" points="169.72 128.24 228.32 108.44 227.18 106.76 169.83 126.22 169.72 128.24"/>
  <polygon class="st6" points="169.83 120.7 188.14 114.92 187 113.72 169.95 118.9 169.83 120.7"/>
  <polygon class="st6" points="170.85 114.07 185.26 109.54 185.26 107.82 171.3 112.16 170.85 114.07"/>
  <polygon class="st6" points="172.44 107.27 185.81 102.93 186.47 100.96 172.78 105.47 172.44 107.27"/>
  <polygon class="st6" points="169.95 136 233.16 114.52 231.7 112.94 169.83 133.86 169.95 136"/>
  <polygon class="st6" points="253.57 346.47 291.58 334.09 289.54 336.75 257.47 347.45 253.57 346.47"/>
  <polygon class="st6" points="246.76 341.91 295.13 325.22 293.97 327.35 248.89 343.59 246.76 341.91"/>
  <polygon class="st6" points="241.53 337.09 297.44 317.68 296.02 320.16 243.3 338.77 241.53 337.09"/>
  <polygon class="st6" points="236.8 331 297.97 309.6 297.26 311.91 238.58 332.6 236.8 331"/>
  <g>
    <path class="st6" d="M224.96,266.18c-26.9-9.37-30.6-35.43-30.07-44.82.49-8.39,12.1-57.67,14.56-68.11-1.02-.78-16.58,59.62-17.12,69.02-.54,9.4,3.17,35.45,30.07,44.82.11.04.2.08.3.1,8.92,1.94,18.39,1.28,26.92-2.01-7.86,2.5-16.34,2.87-24.39,1.12-.1-.03-.2-.07-.3-.1h.03s0,0,0,0Z"/>
    <path class="st5" d="M266.27,196c-6.35-6.95-56.37-44.78-56.85-42.76,10.22,7.87,49.64,38.3,55.11,44.29,6.35,6.95,19.03,26.07,3.48,53.32-.06.1-.42.69-.48.77-4.8,6.44-11.33,10.8-18.21,13.65,8.39-2.61,16.07-7.64,21.74-15.26.06-.08.11-.18.17-.26,14.96-24.24,1.39-46.79-4.95-53.75Z"/>
    <path class="st1" d="M224.94,192.33s6.15.32,8.24,5.78c2.09,5.46,3.96,13.99,13.29,11.02,9.33-2.97,5.37-11.28,4.52-13.66s-7.81-11.63-26.06-3.14Z"/>
    <path class="st6" d="M237.23,192.06s6.86-.47,10.43,4.67c2.65,3.81-1.21,6.36-3.47,2.87-2.26-3.48-1.7-5.93-6.96-7.54Z"/>
    <path class="st4" d="M243.26,296.2"/>
    <path class="st1" d="M229.61,201.21s-1.64-8.5-6.82-7.45c-7.4,1.48-10.7,3.8-14.49,6.82s-5.23,7.89-3.69,12.7c1.54,4.81,3.43,9.66,3.43,9.66,0,0,2.69,9.92,11.29,8.21,8.6-1.71,10.87-2.36,15.12-2.69s6.84-.09,8.51,4.17c1.67,4.27,3.42,8.66-.69,10.29-4.11,1.63-5.49-.39-7.12-4-1.63-3.62-2.42-5.84-6.48-4.57s-9.96,3.54-9.96,3.54c0,0-5.15,2-3.9,6.91,1.25,4.91,5.96,15.8,22.54,9.74l9.66-3.43s12.69-3.61,16.2-10.94c2.49-5.2-.07-11.53-.07-11.53l-2.75-7.74s-2.44-9.69-12.54-8.43c-13.68,1.69-19.65,5.98-21.76.03l-2.06-5.8s-1.22-6.27,5.58-5.5h.02Z"/>
    <g>
      <path class="st5" d="M249.44,195.03c.84,2.38,4.8,10.69-4.52,13.66-1.87.6-3.42.71-4.76.5,1.62.68,3.66.79,6.31-.06,9.33-2.97,5.37-11.28,4.52-13.66-.48-1.36-2.97-4.96-8.43-6.21,4.38,1.51,6.44,4.55,6.87,5.77Z"/>
      <path class="st5" d="M224.94,192.33s.49.03,1.23.19c-.34-.12-.67-.22-.97-.3-.09.04-.17.08-.26.12Z"/>
      <path class="st5" d="M228.06,200.77h-.02c-6.8-.78-5.58,5.49-5.58,5.49l2.06,5.8c.71,1.99,1.85,2.82,3.56,3-.88-.45-1.54-1.25-2.01-2.55l-2.06-5.8s-1.22-6.27,5.58-5.5h.02s-1.4-7.2-5.69-7.5c3.07,1.64,4.13,7.07,4.13,7.07Z"/>
      <path class="st5" d="M232.89,228.02c-4.25.33-6.52.99-15.12,2.69-1.26.25-2.39.23-3.41.05,1.38.56,3.01.79,4.96.4,8.6-1.71,10.87-2.36,15.12-2.69,1.48-.12,2.76-.16,3.87.01-1.42-.64-3.19-.63-5.42-.46Z"/>
      <path class="st5" d="M233.59,238.48c1.21,2.68,2.28,4.48,4.44,4.57-1.2-.7-2.01-2.18-2.88-4.12-1.29-2.86-2.08-4.82-4.36-4.9,1.18.75,1.86,2.35,2.81,4.45Z"/>
      <path class="st5" d="M263.12,228.64l-2.75-7.74s-1.76-6.91-8.42-8.29c5.38,2.03,6.87,7.84,6.87,7.84l2.75,7.74s2.56,6.33.07,11.53c-3.51,7.33-16.2,10.94-16.2,10.94l-9.66,3.43c-5.1,1.87-9.08,2.12-12.18,1.44,3.29,1.16,7.73,1.19,13.73-1l9.66-3.43s12.69-3.61,16.2-10.94c2.49-5.2-.07-11.53-.07-11.53Z"/>
    </g>
    <g>
      <path class="st6" d="M216.62,246.11c-1.25-4.91,3.9-6.91,3.9-6.91,0,0,5.9-2.26,9.96-3.54,1.22-.38,2.12-.42,2.86-.23-.97-1.32-2.23-1.85-4.69-1.08-4.07,1.27-9.96,3.54-9.96,3.54,0,0-5.15,2-3.9,6.91.69,2.72,2.45,7.28,6.71,9.77-2.96-2.57-4.3-6.17-4.89-8.47Z"/>
      <path class="st6" d="M209.86,224.24s-1.89-4.85-3.43-9.66c-1.54-4.81-.1-9.68,3.69-12.7,3.79-3.02,7.09-5.34,14.49-6.82.85-.17,1.59-.07,2.26.19-1.01-1.11-2.35-1.85-4.08-1.49-7.4,1.48-10.7,3.8-14.49,6.82-3.79,3.02-5.23,7.89-3.69,12.7,1.54,4.81,3.43,9.66,3.43,9.66,0,0,1.44,5.24,5.53,7.44-2.7-2.49-3.7-6.14-3.7-6.14Z"/>
      <path class="st6" d="M244.09,244.22c4.11-1.63,2.36-6.02.69-10.29-.83-2.12-1.88-3.24-3.26-3.8.54.62,1.02,1.43,1.43,2.49,1.67,4.27,3.42,8.66-.69,10.29-1.49.59-2.62.7-3.54.43,1.18,1.45,2.7,1.93,5.36.88Z"/>
      <path class="st6" d="M249.65,213.77c2.97-.37,5.26.22,7.04,1.22-1.93-1.72-4.75-3.03-8.86-2.52-10.01,1.24-15.88,3.85-19.14,2.84,2.65,3.56,8.7-.02,20.97-1.53Z"/>
    </g>
    <path class="st6" d="M247.22,235.22s4.58,6.74-1.24,10.65c0,0,9.3-3.38,1.24-10.65Z"/>
    <g>
      <path class="st6" d="M247.19,191.19c-3.85-2.55-10.85-4.17-22.25,1.14,0,0,1.12.06,2.57.55,9.41-4.17,15.73-3.54,19.69-1.69Z"/>
      <path class="st6" d="M234.88,199.06c-1.03-2.69-3.05-4.13-4.83-4.9,1.25.86,2.42,2.11,3.14,3.96,1.52,3.96,2.93,9.51,7.15,11.14-2.94-2.28-4.16-6.82-5.45-10.2Z"/>
    </g>
  </g>
  <path class="st5" d="M182.58,96.83s24.29-18.11,45.9,10.08l59.89,77.59s9.68,10.51,9.47,29.23c-.23,19.77.41,102.08.41,102.08,0,0-.82,17.91-12.55,26.76,0,0,9.06-11.32,10.29-26.96,1.23-15.64-.41-100.64-.41-100.64,0,0,.92-16.06-9.06-29.43-11.82-15.83-59.69-77.9-59.69-77.9,0,0-15.23-24.29-44.25-10.81Z"/>
  <path class="st5" d="M189.85,97.84s-6.17,3.6-3.25,13.28c2.92,9.67,14.37,4.45,14.37,4.45,0,0-11.8,7.01-15.5-2.77-3.99-10.54,4.39-14.96,4.39-14.96Z"/>
  <polygon class="st5" points="207.06 100.99 217.52 98.18 215.16 96.83 210.43 98.29 207.06 100.99"/>
  <polygon class="st5" points="205.06 108.19 223.03 102.01 224.15 103.81 205.03 110.22 205.06 108.19"/>
  <polygon class="st5" points="169.38 129.11 228.45 109.14 227.31 107.46 169.49 127.09 169.38 129.11"/>
  <polygon class="st5" points="169.49 121.58 188.22 115.72 187.08 114.52 169.6 119.78 169.49 121.58"/>
  <polygon class="st5" points="170.5 114.94 184.91 110.41 184.91 108.7 170.95 113.03 170.5 114.94"/>
  <polygon class="st5" points="172.1 108.15 185.46 103.81 185.91 101.89 172.44 106.35 172.1 108.15"/>
  <polygon class="st5" points="169.6 136.88 232.81 115.39 231.84 113.65 169.49 134.74 169.6 136.88"/>
  <polygon class="st5" points="255.66 346.99 290.71 335.54 288.67 338.2 259.56 347.96 255.66 346.99"/>
  <polygon class="st5" points="247.85 342.73 294.26 326.66 293.11 328.79 249.98 344.41 247.85 342.73"/>
  <polygon class="st5" points="242.44 337.85 296.57 319.12 295.15 321.61 244.21 339.53 242.44 337.85"/>
  <polygon class="st5" points="237.47 331.81 297.1 311.05 296.39 313.35 239.24 333.41 237.47 331.81"/>
  <path class="st6" d="M176.84,100.06s-7.49,1.88-6.98,40.65c.53,40.65-1.07,79.5-1.07,79.5,0,0-2.33,19.83,8.95,34.02,10.25,12.89,63.03,80.94,63.03,80.94,0,0,8.24,13.79,29.19,13.79,0,0-16.29,5.37-30.44-12.53s-62.14-80.22-62.14-80.22c0,0-12.45-11.71-10.21-36.53l1.43-78.61s-1.97-35.81,8.24-41.01Z"/>
  <path class="st6" d="M187.52,108.14s.6,6.09,7.69,6.71c6,.52,8.1-5.04,8.1-5.04,0,0-1.48,6.27-8.04,5.9-7.66-.43-7.75-7.57-7.75-7.57Z"/>
  <path class="st6" d="M191.17,98.31s3.99-1.8,8.65-.45c0,0-4.35-3.07-8.65.45Z"/>
  <path class="st6" d="M192.53,90.34s11.61-1.56,14.83-.31l.41-.83s-8.61-1.04-15.24,1.14Z"/>
  <path class="st6" d="M215.23,91.13s8.66,3.86,14.88,11.96c6.21,8.1,62.51,81.72,62.51,81.72,0,0,6.68,9.79,6.97,18.74,0,0-1.41-10.45-7.91-18.45s-61.67-80.87-61.67-80.87c0,0-5.73-8.48-15.02-12.61l.23-.48Z"/>
  <path class="st3" d="M106.63,150.97h2.62l3.18,3.56-54.1,86.48-.53-1.6c-.14-.41-.08-.86.14-1.22l51.68-83.28-3-3.93Z"/>
  <path class="st3" d="M66.01,253.93l54.66-88.35s1.72-3.66-1.3-5.42-5.4,1.13-7.4,4.39-49.7,82.58-49.7,82.58l.38,1.51,49.32-81.32s1.76-3.14,3.89-2.01.75,3.64.75,3.64l-51.7,83.96,1.1,1.03Z"/>
  <path class="st2" d="M113.96,134.84s.82,3.46,4.45,6.6,23.42,15.18,23.42,15.18c0,0,3.46,1.32,5.61.99s-26.06-13.69-33.49-22.76Z"/>
  <path class="st2" d="M157.89,87.12s13.49-2.9,16.88,4.96c0,0-2.15-9.51-16.88-4.96Z"/>
  <path class="st2" d="M152.76,105.9s5.54,5.3,12.08,4.72c0,0-7.78,2.15-12.08-4.72Z"/>
  <path class="st2" d="M114.57,144.41l-4.65,5.45s1.41-4.34,4.65-5.45Z"/>
  <polygon class="st2" points="113.48 156.71 60.38 243.99 60.3 242.7 113.29 156.16 113.48 156.71"/>
  <path class="st2" d="M63.14,249.1l48.76-79.79s1.3-2.67,2.67-2.67c0,0-1.6,2.14-2.67,3.82s-48.61,79.71-48.61,79.71l-.15-1.07Z"/>
  <path class="st0" d="M190.94,109.34s13.61-1.64,22.57-15.08c8.96-13.44,8.89-26.35,9.26-29.63,1.36-11.76-2.86-29.74-12.52-40.42-9.95-11.01-21.07-19.85-38.79-16.59-17.71,3.26-26.37,20.26-28.71,32.07-2.34,11.81-.41,27.59,3.77,33.29l7.64.51s-4.07-6.72-4.99-19.24c-.92-12.52,2.85-29.63,16.19-37.26s27.28-1.93,35.43,6.52,14.66,19.7,14.46,39.4c-.16,16.24-7.16,34.8-24.26,41.01,0,0-1.62,2.54-.04,5.43Z"/>
  <path class="st2" d="M148.52,59.71s3.27,11.67,4.74,13.14l-1.52.06s-3.1-7.33-3.21-13.2Z"/>
  <path class="st3" d="M199.38,103.41s16.25-14.64,18.65-32.29c0,0,0,18.85-18.65,32.29Z"/>
  <path class="st3" d="M219.84,54.67s-5.42-20.26-14.04-28.48-16.85-15.64-30.49-16.05c-13.64-.4-23.47,10.23-23.47,10.23,0,0,9.03-14.84,26.48-12.64,17.45,2.21,25.47,14.04,26.88,15.24s7.82,8.54,9.05,11.29c1.42,3.19,5.59,20.4,5.59,20.4Z"/>
  <path class="st3" d="M168.09,13.76s-22.86,6.22-22.66,31.09c0,0,1.2-22.26,22.66-31.09Z"/>
  <path class="st3" d="M149.84,73.53s-4.21-10.83-4.21-18.45c0,0,3.1,16.89,5.47,18.52l-1.26-.07Z"/>
  <path class="st2" d="M212.44,38.12s5.16,7.79,5.39,17.42c0,0-3.55-15.13-5.39-17.42Z"/>
  <path class="st2" d="M221.79,58.72s-4.09-15.83-4.93-18.66-3.56-9.64-9.85-16.46-13.52-11.63-14.88-12.68c0,0,14.21,7.31,22.01,20.86,5.97,10.38,7.65,26.94,7.65,26.94Z"/>
  <path class="st3" d="M115.79,141.67s-7.15-8.86-7.78-19.9c-.62-11.04,1.87-22.08,10.57-31.26s18.66-15.39,28.77-16.48c10.11-1.09,21.15,2.49,21.15,2.49,0,0-11.97-7.62-29.23-1.87-17.26,5.75-24.26,16.33-27.99,22.86s-11.82,28.15,2.49,43.54l2.02.62Z"/>
  <path class="st3" d="M144.8,69.75c.52,1.27,1.09,2.38,1.72,3.24l7.64.51s-.73-1.22-1.65-3.56c-3.18.8-5.86.4-7.71-.19Z"/>
  <path class="st3" d="M193.47,102.86c-.81.37-1.63.74-2.49,1.05,0,0-1.62,2.54-.04,5.43,0,0,8.68-1.05,16.74-8.32-10.22,7-13.35,3.56-14.2,1.84Z"/>
</svg>