<?xml version="1.0" encoding="UTF-8"?>
<svg id="Layer_1" xmlns="http://www.w3.org/2000/svg" xmlns:xlink="http://www.w3.org/1999/xlink" version="1.1" viewBox="0 0 360 360">
  <!-- Generator: Adobe Illustrator 30.3.0, SVG Export Plug-In . SVG Version: 2.1.3 Build 182)  -->
  <defs>
    <style>
      .st0 {
        fill: url(#linear-gradient2);
      }

      .st1 {
        fill: url(#linear-gradient1);
      }

      .st2 {
        fill: url(#linear-gradient9);
      }

      .st3 {
        fill: url(#linear-gradient3);
      }

      .st4 {
        fill: url(#linear-gradient6);
      }

      .st5 {
        fill: url(#linear-gradient8);
      }

      .st6 {
        fill: url(#linear-gradient7);
      }

      .st7 {
        fill: url(#linear-gradient5);
      }

      .st8 {
        fill: url(#linear-gradient4);
      }

      .st9 {
        fill: url(#linear-gradient10);
      }

      .st10 {
        fill: url(#linear-gradient);
      }

      .st11 {
        fill: #fff;
      }

      .st12 {
        fill: #a9dcff;
      }

      .st13 {
        fill: #9a9fed;
      }
    </style>
    <linearGradient id="linear-gradient" x1="24.88" y1="210.5" x2="148.07" y2="210.5" gradientUnits="userSpaceOnUse">
      <stop offset="0" stop-color="#ffe16c"/>
      <stop offset="1" stop-color="#ffb2c5"/>
    </linearGradient>
    <linearGradient id="linear-gradient1" x1="211.45" y1="211.01" x2="335.61" y2="211.01" xlink:href="#linear-gradient"/>
    <linearGradient id="linear-gradient2" x1="108.31" y1="165.82" x2="164.07" y2="165.82" xlink:href="#linear-gradient"/>
    <linearGradient id="linear-gradient3" x1="195.5" y1="166.85" x2="251.01" y2="166.85" xlink:href="#linear-gradient"/>
    <linearGradient id="linear-gradient4" x1="220.2" y1="250.06" x2="343.46" y2="250.06" xlink:href="#linear-gradient"/>
    <linearGradient id="linear-gradient5" x1="16.73" y1="249.75" x2="139.19" y2="249.75" xlink:href="#linear-gradient"/>
    <linearGradient id="linear-gradient6" x1="90.75" y1="307.68" x2="138.94" y2="307.68" xlink:href="#linear-gradient"/>
    <linearGradient id="linear-gradient7" x1="221.48" y1="307.68" x2="269.42" y2="307.68" xlink:href="#linear-gradient"/>
    <linearGradient id="linear-gradient8" x1="147.8" y1="161.72" x2="209.46" y2="161.72" xlink:href="#linear-gradient"/>
    <linearGradient id="linear-gradient9" x1="205.74" y1="186.51" x2="311.1" y2="186.51" xlink:href="#linear-gradient"/>
    <linearGradient id="linear-gradient10" x1="46.55" y1="183.4" x2="151.49" y2="183.4" xlink:href="#linear-gradient"/>
  </defs>
  <g>
    <path class="st11" d="M115.97,222.59l-10.57-21.86c-6.4-13.22-11.92-26.29-17.24-40.02-7.59-19.59-13.73-39.11-17.35-59.79-1.66-9.46-2.1-18.22-1.27-27.79-5.69,1.4-10.14,3.43-14.59,6.13-10.84,7.15-15.95,19.72-13.22,32.47,4.73,22.11,21.58,55.02,34.41,73.99l32.41,47.95,20.61,29.1,24.71,35.85-11.4-23.84-26.49-52.19Z"/>
    <path class="st11" d="M97.68,231.04c-13.03-18.5-25.31-36.98-36.82-56.46-10.67-18.05-19.56-36.54-25.31-57-2.98,2.28-5.94,4.56-8.56,7.1-9.07,8.78-4.92,22.62.49,33.57,9.41,19.07,30.44,46.92,44.97,62.97l40.22,44.46,20.61,21.79c5.13,5.46,9.36,10.86,14.78,15.93-8.49-13.57-17.61-25.86-26.71-38.78l-23.67-33.59Z"/>
    <path class="st11" d="M138.2,142.53c-2.44-22.76-4.39-45.03-4.16-67.8.11-10.6.95-20.55,3.15-31.04-5.39-2.57-11.33-3.97-17.3-4.34-8.17-.51-14.74,3.86-17.21,11.68-2.16,6.82-3.02,13.99-2.79,21.37.98,30.74,11.33,70.9,20.56,100.91,12.55,40.8,27.13,80.66,43.62,119.01-6.69-29.98-13.3-58.34-17.32-87.63l-8.55-62.16Z"/>
    <path class="st11" d="M99.41,294.69c1.31,10.46,7.89,17.85,17.58,21.99-9.47.7-17.05-5.55-20.62-13.63l-4.28-11.75c-2.35,10.93-2.73,26.72,8.36,30.41,11.33,3.77,26.29,1.98,38.48,1.49l-10.83-8.45c-9.42-7.35-18.63-13.98-28.69-20.06Z"/>
    <path class="st11" d="M190.34,258.9l-4.37,41.33c4.5-16.3,8-32,11.29-48.43,6.9-34.49,12.33-68.82,16.47-103.82,2.75-23.32,4.57-46.22,4.93-69.59.16-10.57-.43-20.64-2.2-30.74-.76-4.33-2.77-7.18-5.93-9.85-10.05-8.49-22.59-13.38-35.98-11.47-11,1.57-22.12,6.64-28.84,15.66-3.23,5.27-3.32,12.32-3.82,18.32-1.4,16.81-.57,32.96.65,49.89,1.96,27.3,5.5,53.92,9.6,81.01,5.58,36.87,12.31,73.22,22.02,109.07l-5.28-68.1c-.28-13.33-1.18-26.03.49-39.25,2.43,13.82,3.22,26.69,4.56,40.33l6,60.9c.14,1.46-.14,2.6.65,3.35l1.79-19.85,7.97-76.92c1.55-14.98,2.57-29.26,5.26-44.41,1.29,11.64,1.28,22.99.31,34.84l-5.56,67.73Z"/>
    <path class="st11" d="M87.33,259.27l-32.47-29.08c-13.33-11.94-24.87-25.16-35.62-39.46-4.21,10.35-3.16,21.98,3.2,31.44,8.91,13.27,25.42,23.77,39.13,32.64l33.73,21.84c13.12,8.49,25.53,17.16,37.77,27.17l6.11,4.97-12.49-13.4c-12.71-12.68-25.99-24.12-39.38-36.11Z"/>
    <path class="st11" d="M258.37,91.74c1.81-13.14,2.99-31.33-2.1-42.83-3.11-6.29-8.58-9.8-15.57-9.54-6.23.23-12.44,1.47-17.95,4.18,3.42,18.2,3.25,37.62,2.36,55.87-1.04,21.16-3.1,41.69-5.72,62.74-3.58,26.85-7.65,53.05-12.61,79.69l-11.27,52.46c14.42-35.21,27.47-70.65,39.22-106.94,9.63-29.76,19.4-64.96,23.64-95.62Z"/>
    <path class="st11" d="M322.8,212.25c-12.44,13.3-25.53,25.32-39.32,37.3-17.51,15.21-34.61,30.24-50.9,46.69l-12.38,13.54c15.87-13.62,32.85-25.61,50.69-37.18l40.59-26.32c8.11-5.26,15.3-11.13,21.77-18.12,9.59-10.35,12.95-24.33,7.81-37.8l-18.27,21.9Z"/>
    <path class="st11" d="M243.36,316.5c5.83-4.04,10.23-7.59,13.67-13.01,1.77-2.8,3.65-5.37,4.3-8.88-10.61,6.21-20.13,12.85-29.52,20.33l-10.34,8.23,15.48.69c7.02.31,13.92.13,20.64-1.39,5.67-1.28,9.68-5.22,10.79-10.91,1.29-6.61,1.55-13.43-.24-20.2-3.66,12.77-10.31,24.74-24.79,25.14Z"/>
    <path class="st11" d="M273.19,237.33c18.59-20.19,46.33-54.31,58.61-77.58,5.65-10.72,10.19-27.43,1.21-35.03l-8.53-7.22c-5.37,18.23-12.73,34.6-21.86,50.81-10.11,17.96-21.13,34.87-32.9,51.78l-27.48,39.48c-10.47,14.99-21.14,29.26-30.78,44.96l29.51-32.21,32.22-34.99Z"/>
    <path class="st11" d="M272.52,202.94c11.39-16.42,21.5-33.13,30.55-50.91,6.38-12.52,11.53-24.99,14.89-38.52,4.99-20.12-7.66-36.34-27.43-40.06.99,10.42.06,20.03-1.91,30.05-2.1,10.67-4.4,20.73-7.79,31.12-12.12,37.21-27.42,69.2-44.97,103.95l-21.01,41.6-9.12,19.4,29.86-43.42,36.91-53.2Z"/>
    <path class="st11" d="M347.82,182.8c12.32-25.61,6.03-56.4-18.13-72.02-1.57-1.01-2.18-2.45-2.12-4.4.54-17.67-10.57-33.63-27.33-38.98l-10.99-3.52c-12.64-28.48-39.77-39.89-68.92-28.58-6.91-6.49-14.23-11.89-23.14-14.86-19.68-6.54-40.93-1.19-55.65,13.2-1.38,1.35-2.37,1.3-4.13.7-11.4-3.93-23.44-4.74-34.94-.89-13.98,4.68-24.77,15.18-30.85,28.49-.61,1.35-1.77,2.42-3.11,2.79-4.68,1.28-8.99,2.48-13.26,4.57-14.53,7.13-23.22,21.41-22.85,37.68.04,1.61-.69,2.99-2.06,3.87-12.14,7.83-20.22,19.84-23.17,34.07-2.54,12.26-.77,24.48,4.2,35.95.61,1.41,1.08,3.25.42,4.77-6.45,14.89-4.16,31.74,5.8,44.6,11.38,14.71,30.95,26.3,46.85,36.75l20.68,13.59c-3.04,14.48-6.07,35.33,5,44.93,10.92,9.47,29.67,6.69,43.2,6.47l18.55-.3c14.06,11.57,34.21,14.44,49.27,4.94l8.15-5.14,28.17.98c10.65.37,24.07.13,31.94-6.34,8.08-6.65,9.68-20.62,8.09-30.82l-2.29-14.69,12.43-8.61,33.78-22.28c7.11-4.69,12.95-10.22,18.65-16.44,11.48-12.53,15.06-29.82,9.01-45.79l-1.24-4.67ZM100.46,321.71c-11.09-3.69-10.71-19.48-8.36-30.41l4.28,11.75c3.58,8.07,11.15,14.33,20.62,13.63-9.69-4.14-16.27-11.53-17.58-21.99,10.06,6.08,19.27,12.71,28.69,20.06l10.83,8.45c-12.19.5-27.15,2.28-38.48-1.49ZM133.08,303.82c-12.25-10.02-24.66-18.68-37.77-27.17l-33.73-21.84c-13.71-8.88-30.23-19.38-39.13-32.64-6.36-9.47-7.41-21.09-3.2-31.44,10.75,14.31,22.28,27.52,35.62,39.46l32.47,29.08c13.39,11.99,26.67,23.44,39.38,36.11l12.49,13.4-6.11-4.97ZM133.29,287.49l-20.61-21.79-40.22-44.46c-14.53-16.06-35.56-43.91-44.97-62.97-5.41-10.96-9.56-24.79-.49-33.57,2.63-2.55,5.59-4.83,8.56-7.1,5.75,20.47,14.64,38.95,25.31,57,11.51,19.48,23.79,37.96,36.82,56.46l23.67,33.59c9.11,12.92,18.22,25.22,26.71,38.78-5.42-5.07-9.65-10.47-14.78-15.93ZM129.15,262.77l-20.61-29.1-32.41-47.95c-12.82-18.97-29.68-51.88-34.41-73.99-2.73-12.76,2.38-25.32,13.22-32.47,4.45-2.7,8.9-4.73,14.59-6.13-.83,9.58-.38,18.34,1.27,27.79,3.62,20.69,9.76,40.21,17.35,59.79,5.32,13.73,10.84,26.8,17.24,40.02l10.57,21.86,26.49,52.19,11.4,23.84-24.71-35.85ZM120.45,173.32c-9.23-30.02-19.58-70.18-20.56-100.91-.24-7.39.63-14.55,2.79-21.37,2.48-7.82,9.05-12.19,17.21-11.68,5.97.37,11.9,1.77,17.3,4.34-2.19,10.49-3.04,20.44-3.15,31.04-.23,22.77,1.72,45.04,4.16,67.8l8.55,62.16c4.03,29.29,10.64,57.65,17.32,87.63-16.49-38.35-31.08-78.21-43.62-119.01ZM195.58,156.33c-2.69,15.15-3.71,29.43-5.26,44.41l-7.97,76.92-1.79,19.85c-.78-.75-.5-1.89-.65-3.35l-6-60.9c-1.34-13.63-2.13-26.5-4.56-40.33-1.66,13.22-.77,25.92-.49,39.25l5.28,68.1c-9.72-35.85-16.44-72.2-22.02-109.07-4.1-27.09-7.64-53.72-9.6-81.01-1.22-16.93-2.05-33.08-.65-49.89.5-6,.59-13.05,3.82-18.32,6.73-9.02,17.84-14.09,28.84-15.66,13.39-1.91,25.93,2.97,35.98,11.47,3.16,2.67,5.17,5.52,5.93,9.85,1.77,10.11,2.36,20.17,2.2,30.74-.36,23.37-2.18,46.27-4.93,69.59-4.13,35-9.56,69.33-16.47,103.82-3.29,16.43-6.79,32.13-11.29,48.43l4.37-41.33,5.56-67.73c.97-11.85.98-23.2-.31-34.84ZM195.51,294.31l11.27-52.46c4.96-26.64,9.03-52.84,12.61-79.69,2.63-21.05,4.69-41.57,5.72-62.74.89-18.25,1.06-37.68-2.36-55.87,5.51-2.71,11.73-3.95,17.95-4.18,6.99-.26,12.45,3.25,15.57,9.54,5.1,11.5,3.92,29.69,2.1,42.83-4.24,30.66-14.01,65.86-23.64,95.62-11.75,36.3-24.8,71.74-39.22,106.94ZM205.74,299.57l9.12-19.4,21.01-41.6c17.55-34.75,32.85-66.74,44.97-103.95,3.39-10.39,5.69-20.45,7.79-31.12,1.97-10.02,2.89-19.63,1.91-30.05,19.76,3.73,32.41,19.94,27.43,40.06-3.35,13.53-8.51,26-14.89,38.52-9.05,17.78-19.16,34.49-30.55,50.91l-36.91,53.2-29.86,43.42ZM242.24,259.57l27.48-39.48c11.77-16.91,22.79-33.82,32.9-51.78,9.13-16.21,16.49-32.58,21.86-50.81l8.53,7.22c8.98,7.6,4.44,24.31-1.21,35.03-12.28,23.28-40.02,57.39-58.61,77.58l-32.22,34.99-29.51,32.21c9.65-15.7,20.31-29.97,30.78-44.96ZM268.39,311.56c-1.11,5.7-5.12,9.63-10.79,10.91-6.72,1.52-13.62,1.7-20.64,1.39l-15.48-.69,10.34-8.23c9.39-7.48,18.91-14.12,29.52-20.33-.65,3.51-2.53,6.08-4.3,8.88-3.44,5.42-7.84,8.97-13.67,13.01,14.48-.4,21.13-12.37,24.79-25.14,1.79,6.77,1.53,13.6.24,20.2ZM333.26,228.15c-6.47,6.99-13.66,12.85-21.77,18.12l-40.59,26.32c-17.84,11.57-34.82,23.57-50.69,37.18l12.38-13.54c16.3-16.45,33.4-31.48,50.9-46.69,13.79-11.98,26.88-24,39.32-37.3l18.27-21.9c5.14,13.46,1.77,27.45-7.81,37.8Z"/>
  </g>
  <path class="st13" d="M209.29,331.48l-8.15,5.14c-15.06,9.5-35.21,6.63-49.27-4.94l-18.55.3c-13.52.22-32.28,3-43.2-6.47-11.07-9.6-8.04-30.45-5-44.93l-20.68-13.59c-15.9-10.44-35.46-22.04-46.85-36.75-9.96-12.86-12.25-29.71-5.8-44.6.66-1.52.19-3.36-.42-4.77-4.97-11.47-6.73-23.69-4.2-35.95,2.95-14.24,11.03-26.24,23.17-34.07,1.37-.88,2.1-2.26,2.06-3.87-.37-16.27,8.32-30.56,22.85-37.68,4.27-2.09,8.58-3.3,13.26-4.57,1.34-.36,2.49-1.44,3.11-2.79,6.08-13.31,16.87-23.81,30.85-28.49,11.51-3.85,23.54-3.04,34.94.89,1.75.6,2.75.65,4.13-.7,14.71-14.39,35.97-19.74,55.65-13.2,8.91,2.96,16.24,8.37,23.14,14.86,29.15-11.31,56.27.1,68.92,28.58l10.99,3.52c16.75,5.36,27.87,21.31,27.33,38.98-.06,1.95.55,3.39,2.12,4.4,24.15,15.62,30.45,46.41,18.13,72.02l1.24,4.67c6.05,15.97,2.47,33.26-9.01,45.79-5.7,6.22-11.54,11.76-18.65,16.44l-33.78,22.28-12.43,8.61,2.29,14.69c1.59,10.2-.02,24.17-8.09,30.82-7.87,6.48-21.29,6.71-31.94,6.34l-28.17-.98ZM182.36,277.66l7.97-76.92c1.55-14.98,2.57-29.26,5.26-44.41,1.29,11.64,1.28,22.99.31,34.84l-5.56,67.73-4.37,41.33c4.5-16.3,8-32,11.29-48.43,6.9-34.49,12.34-68.82,16.47-103.82,2.75-23.32,4.57-46.22,4.93-69.59.16-10.57-.43-20.64-2.2-30.74-.76-4.33-2.77-7.18-5.93-9.85-10.05-8.49-22.59-13.38-35.98-11.47-11,1.57-22.12,6.64-28.84,15.66-3.23,5.27-3.32,12.32-3.82,18.32-1.4,16.81-.57,32.96.65,49.89,1.96,27.3,5.5,53.92,9.6,81.01,5.58,36.87,12.3,73.22,22.02,109.07l-5.28-68.1c-.28-13.33-1.18-26.03.49-39.25,2.43,13.82,3.22,26.69,4.56,40.33l6,60.9c.14,1.46-.14,2.6.65,3.35l1.79-19.85ZM164.07,292.32c-6.69-29.98-13.3-58.34-17.32-87.63l-8.55-62.16c-2.44-22.76-4.39-45.03-4.16-67.8.11-10.6.95-20.55,3.15-31.04-5.39-2.57-11.33-3.97-17.3-4.34-8.17-.51-14.74,3.86-17.21,11.68-2.16,6.82-3.02,13.99-2.79,21.37.98,30.74,11.33,70.9,20.56,100.91,12.55,40.8,27.13,80.66,43.62,119.01ZM234.73,187.36c9.63-29.76,19.4-64.96,23.64-95.62,1.81-13.14,2.99-31.33-2.1-42.83-3.11-6.29-8.58-9.8-15.57-9.54-6.23.23-12.44,1.47-17.95,4.18,3.42,18.2,3.25,37.62,2.36,55.87-1.04,21.16-3.1,41.69-5.72,62.74-3.58,26.85-7.65,53.05-12.61,79.69l-11.27,52.46c14.42-35.21,27.47-70.65,39.22-106.94ZM153.86,298.62l-11.4-23.84-26.49-52.19-10.57-21.86c-6.4-13.22-11.92-26.29-17.24-40.02-7.59-19.59-13.73-39.11-17.35-59.79-1.66-9.46-2.1-18.22-1.27-27.79-5.69,1.4-10.14,3.43-14.59,6.13-10.84,7.15-15.95,19.72-13.22,32.48,4.73,22.11,21.58,55.02,34.41,73.99l32.41,47.95,20.61,29.1,24.71,35.85ZM205.74,299.57l29.86-43.42,36.91-53.2c11.39-16.42,21.5-33.13,30.55-50.91,6.38-12.52,11.53-24.99,14.89-38.52,4.99-20.12-7.66-36.34-27.43-40.06.99,10.42.06,20.03-1.91,30.05-2.1,10.67-4.4,20.73-7.79,31.12-12.12,37.21-27.42,69.2-44.97,103.95l-21.01,41.6-9.12,19.4ZM133.29,287.49c5.13,5.46,9.36,10.86,14.78,15.93-8.49-13.57-17.61-25.86-26.71-38.78l-23.67-33.59c-13.03-18.49-25.31-36.98-36.82-56.46-10.67-18.05-19.56-36.54-25.31-57-2.98,2.28-5.94,4.56-8.56,7.1-9.07,8.78-4.92,22.62.49,33.57,9.41,19.07,30.44,46.92,44.97,62.97l40.22,44.46,20.61,21.79ZM273.19,237.33c18.59-20.19,46.33-54.31,58.61-77.58,5.65-10.72,10.19-27.43,1.21-35.03l-8.53-7.22c-5.37,18.23-12.73,34.6-21.86,50.81-10.11,17.96-21.13,34.87-32.9,51.78l-27.48,39.48c-10.47,14.99-21.14,29.26-30.78,44.96l29.51-32.21,32.22-34.99ZM133.08,303.82l6.11,4.97-12.49-13.4c-12.71-12.68-25.99-24.12-39.38-36.11l-32.47-29.08c-13.33-11.94-24.87-25.16-35.62-39.46-4.21,10.35-3.16,21.98,3.2,31.44,8.91,13.27,25.42,23.77,39.13,32.64l33.73,21.84c13.12,8.49,25.53,17.16,37.77,27.17ZM220.2,309.77c15.87-13.62,32.85-25.61,50.69-37.18l40.59-26.32c8.11-5.26,15.3-11.13,21.77-18.12,9.59-10.35,12.95-24.33,7.81-37.8l-18.27,21.9c-12.44,13.3-25.53,25.32-39.32,37.3-17.51,15.21-34.61,30.24-50.9,46.69l-12.38,13.53ZM128.11,314.75c-9.42-7.35-18.63-13.98-28.69-20.06,1.31,10.46,7.89,17.85,17.58,21.99-9.47.7-17.05-5.55-20.62-13.63l-4.28-11.75c-2.35,10.93-2.73,26.72,8.36,30.41s26.29,1.98,38.48,1.49l-10.83-8.45ZM231.82,314.94l-10.34,8.23,15.48.69c7.02.31,13.92.13,20.64-1.39,5.67-1.28,9.68-5.22,10.79-10.91,1.29-6.61,1.55-13.43-.24-20.2-3.66,12.77-10.31,24.74-24.79,25.14,5.83-4.04,10.23-7.59,13.67-13.01,1.77-2.8,3.65-5.37,4.3-8.88-10.61,6.21-20.13,12.85-29.52,20.33Z"/>
  <path class="st10" d="M133.29,287.49c5.13,5.46,9.36,10.86,14.78,15.93-8.49-13.57-17.61-25.86-26.71-38.78l-23.67-33.59c-13.03-18.5-25.31-36.98-36.82-56.46-10.67-18.05-19.56-36.54-25.31-57-2.98,2.28-5.94,4.56-8.56,7.1-.81.78-1.5,1.6-2.11,2.46.71,14.47,12.21,54.86,93.54,144.62l14.87,15.72Z"/>
  <path class="st1" d="M333.01,124.71l-8.53-7.22c-5.37,18.23-12.73,34.6-21.86,50.81-10.11,17.96-21.13,34.87-32.9,51.78l-27.48,39.48c-10.47,14.99-21.14,29.26-30.78,44.96l29.51-32.21,19.33-20.99c62.22-72.99,73.9-108.76,75.31-123.61-.7-1.11-1.55-2.12-2.6-3.01Z"/>
  <path class="st0" d="M144.75,244.36c6.12,16.21,12.55,32.22,19.32,47.96-6.69-29.98-13.3-58.34-17.32-87.63l-8.55-62.16c-2.44-22.76-4.39-45.03-4.16-67.8.11-10.6.95-20.55,3.15-31.04-5.39-2.57-11.33-3.97-17.3-4.34-.53-.03-1.05-.04-1.57-.04-11.27,14.3-23.35,59.98,26.43,205.05Z"/>
  <path class="st3" d="M240.19,39.39c-6.06.28-12.08,1.52-17.44,4.15,3.42,18.2,3.25,37.62,2.36,55.87-1.04,21.16-3.1,41.69-5.72,62.74-3.58,26.85-7.65,53.05-12.61,79.69l-11.27,52.46c4.6-11.24,9.05-22.51,13.38-33.81,1.34-4.3,2.85-8.89,4.55-13.79,52.31-151.05,38.33-194.72,26.75-207.31Z"/>
  <path class="st8" d="M343.46,202.67c-.05-4.07-.82-8.22-2.38-12.31l-18.27,21.9c-12.44,13.3-25.53,25.32-39.32,37.3-17.51,15.21-34.61,30.24-50.9,46.69l-12.38,13.53c15.87-13.62,32.85-25.61,50.69-37.18l30.91-20.04c26.49-21.35,37.27-38.96,41.65-49.88ZM310.97,235.96c8.12-7.48,15.6-15.28,22.14-24.33,2.33.67-1.1,7.74-3.72,11.23-6.82,9.11-15.29,15.99-25.62,20.86,2.03-3.23,4.51-5.35,7.2-7.77Z"/>
  <path class="st7" d="M87.33,259.27l-32.47-29.08c-13.33-11.94-24.87-25.16-35.62-39.46-1.93,4.75-2.74,9.78-2.45,14.73,5.98,11.33,20.36,29.99,54.81,55.84l23.72,15.35c13.12,8.49,25.53,17.16,37.77,27.17l6.11,4.97-12.49-13.4c-12.71-12.68-25.99-24.12-39.38-36.11ZM34.39,227.5c-4.4-5.53-8.8-11.31-8.92-19.13,5.46,8.53,11.3,16.05,18.67,22.8,4.01,4.3,8.45,7.56,12.63,12.54-8.9-3.28-15.92-9.59-22.37-16.21Z"/>
  <path class="st4" d="M128.11,314.75l10.83,8.45c-12.19.5-27.15,2.28-38.48-1.49s-10.71-19.48-8.36-30.41l4.28,11.75c3.58,8.07,11.15,14.33,20.62,13.63-9.69-4.14-16.27-11.53-17.58-21.99,10.06,6.08,19.27,12.71,28.69,20.06Z"/>
  <path class="st6" d="M231.82,314.94c9.39-7.48,18.91-14.12,29.52-20.33-.65,3.51-2.53,6.08-4.3,8.88-3.44,5.42-7.84,8.97-13.67,13.01,14.48-.4,21.13-12.37,24.79-25.14,1.79,6.77,1.53,13.6.24,20.2-1.11,5.7-5.12,9.63-10.79,10.91-6.72,1.52-13.62,1.7-20.64,1.39l-15.48-.69,10.34-8.23Z"/>
  <path class="st5" d="M172.92,284.35l-4.04-52.17c-.28-13.33-1.18-26.03.49-39.25,2.43,13.82,3.22,26.7,4.56,40.33l6,60.9c.14,1.46-.14,2.6.65,3.35l1.79-19.85,7.97-76.92c1.55-14.98,2.57-29.26,5.26-44.41,1.29,11.64,1.28,22.99.31,34.84l-5.56,67.73-.36,3.36c25.49-120.47,20.32-195.89,15.55-228.22-9.08-6.11-19.73-9.32-30.99-7.71-8.45,1.21-16.96,4.49-23.5,10.02-4.82,34.68-8.52,113.37,21.88,247.99ZM158.45,43.84c.61.04.92,1.88.7,2.5-3.92,11.39-6.11,22.75-6.68,34.83l-1.15,24.37c-3.54-15.26-3.82-30.54-1.38-45.57.97-5.98,5.15-16.37,8.5-16.13Z"/>
  <path class="st2" d="M310.51,83.73c-4.99-5.13-11.89-8.76-19.99-10.29.99,10.42.06,20.03-1.91,30.05-2.1,10.67-4.4,20.73-7.79,31.12-12.12,37.21-27.42,69.2-44.97,103.95l-21.01,41.6-9.12,19.4,29.86-43.42,30.73-44.28c42.92-72.62,46.67-110.62,44.18-128.13Z"/>
  <path class="st9" d="M48.52,109.6c-.64-9.86,3.22-20.72,12.93-23.36-2.33,4.35-5.24,7.79-6.82,12.13-1.96,5.39-2.5,11.14-1.2,16.72l4.61,19.8c-2.29-2.84-4.01-5.92-5.37-9.12,9.31,29.99,31.39,74.89,80.2,140.3,8,10.72,14.13,19.87,18.63,27.61l-9.03-18.9-26.49-52.19-10.57-21.86c-6.4-13.22-11.92-26.29-17.24-40.02-7.59-19.59-13.73-39.11-17.35-59.79-1.66-9.46-2.1-18.22-1.27-27.79-5.69,1.4-10.14,3.43-14.59,6.13-3.31,2.18-6.08,4.88-8.26,7.92-.36,5.59-.02,12.95,1.84,22.42Z"/>
  <path class="st12" d="M189.98,262.27l-4.02,37.97c4.5-16.3,8-32,11.29-48.43,6.9-34.49,12.33-68.82,16.46-103.82,2.75-23.32,4.57-46.22,4.93-69.59.16-10.57-.43-20.64-2.2-30.74-.76-4.33-2.77-7.18-5.93-9.85-1.6-1.35-3.27-2.6-4.99-3.76,4.77,32.33,9.94,107.75-15.55,228.22Z"/>
  <path class="st12" d="M145.7,41.99c-3.23,5.27-3.32,12.32-3.82,18.32-1.4,16.81-.57,32.96.65,49.89,1.96,27.3,5.5,53.92,9.6,81.01,5.58,36.87,12.3,73.22,22.02,109.07l-1.23-15.93c-30.4-134.62-26.7-213.31-21.88-247.99-1.98,1.67-3.78,3.54-5.34,5.63Z"/>
  <path class="st12" d="M102.68,51.03c-2.16,6.82-3.02,13.99-2.79,21.37.98,30.74,11.33,70.9,20.56,100.91,7.4,24.05,15.52,47.76,24.31,71.04C94.97,99.29,107.06,53.61,118.32,39.31c-7.43.11-13.33,4.41-15.65,11.72Z"/>
  <path class="st12" d="M258.37,91.74c1.81-13.14,2.99-31.33-2.1-42.83-3.11-6.29-8.58-9.8-15.57-9.54-.17,0-.34.02-.51.03,11.57,12.59,25.56,56.26-26.75,207.31-1.7,4.9-3.21,9.49-4.55,13.79,9.23-24.11,17.85-48.42,25.85-73.13,9.63-29.76,19.4-64.96,23.64-95.62Z"/>
  <path class="st12" d="M41.72,111.72c4.73,22.11,21.58,55.02,34.41,73.99l32.41,47.95,20.61,29.1,24.71,35.85-2.37-4.95c-4.49-7.74-10.63-16.88-18.63-27.61-48.8-65.41-70.89-110.32-80.2-140.3-1.61-3.81-2.71-7.79-3.56-11.8-.3-1.41-.49-2.88-.59-4.37-1.86-9.47-2.2-16.83-1.84-22.42-4.96,6.93-6.85,15.69-4.96,24.55Z"/>
  <path class="st12" d="M303.07,152.04c6.38-12.52,11.53-24.99,14.89-38.52,2.94-11.88-.26-22.39-7.44-29.78,2.48,17.5-1.26,55.51-44.18,128.13l6.19-8.92c11.39-16.42,21.5-33.13,30.55-50.91Z"/>
  <path class="st12" d="M27.48,158.26c9.41,19.07,30.44,46.92,44.97,62.97l40.22,44.46,5.75,6.08C37.09,182.01,25.59,141.61,24.88,127.15c-6.2,8.76-2.33,21.13,2.6,31.11Z"/>
  <path class="st12" d="M331.8,159.74c5-9.47,9.11-23.61,3.81-32.02-1.42,14.85-13.1,50.62-75.31,123.61l12.89-14c18.59-20.19,46.33-54.31,58.61-77.58Z"/>
  <path class="st12" d="M333.26,228.15c6.67-7.2,10.32-16.16,10.2-25.48-4.38,10.92-15.16,28.52-41.65,49.88l9.68-6.28c8.11-5.26,15.3-11.13,21.77-18.12Z"/>
  <path class="st12" d="M16.79,205.45c.34,5.84,2.21,11.59,5.65,16.71,8.91,13.27,25.42,23.77,39.13,32.64l10.02,6.49c-34.45-25.85-48.82-44.51-54.81-55.84Z"/>
</svg>