<?xml version="1.0" encoding="UTF-8"?>
<svg id="Layer_1" xmlns="http://www.w3.org/2000/svg" xmlns:xlink="http://www.w3.org/1999/xlink" version="1.1" viewBox="0 0 360 360">
  <!-- Generator: Adobe Illustrator 30.3.0, SVG Export Plug-In . SVG Version: 2.1.3 Build 182)  -->
  <defs>
    <style>
      .st0, .st1, .st2 {
        isolation: isolate;
      }

      .st1 {
        fill: url(#radial-gradient1);
      }

      .st1, .st2 {
        mix-blend-mode: multiply;
        opacity: .21;
      }

      .st3 {
        fill: #fdbb2e;
      }

      .st2 {
        fill: url(#radial-gradient);
      }

      .st4 {
        fill: #fff;
      }

      .st5 {
        fill: #f7ab26;
      }

      .st6 {
        fill: #ff860e;
      }
    </style>
    <radialGradient id="radial-gradient" cx="180" cy="78.75" fx="180" fy="78.75" r="86.67" gradientTransform="translate(0 355.73) scale(1 -.96)" gradientUnits="userSpaceOnUse">
      <stop offset=".67" stop-color="#fff"/>
      <stop offset=".73" stop-color="#fefdfc"/>
      <stop offset=".78" stop-color="#fdf9f3"/>
      <stop offset=".82" stop-color="#fbf2e4"/>
      <stop offset=".85" stop-color="#f8e9ce"/>
      <stop offset=".88" stop-color="#f5dcb2"/>
      <stop offset=".91" stop-color="#f1cd90"/>
      <stop offset=".94" stop-color="#ebba67"/>
      <stop offset=".97" stop-color="#e6a538"/>
      <stop offset="1" stop-color="#df8d04"/>
      <stop offset="1" stop-color="#df8c00"/>
    </radialGradient>
    <radialGradient id="radial-gradient1" cx="177.44" cy="266.08" fx="177.44" fy="266.08" r="89.37" gradientTransform="translate(0 362) scale(1 -1)" gradientUnits="userSpaceOnUse">
      <stop offset=".67" stop-color="#fff"/>
      <stop offset=".73" stop-color="#fefdfc"/>
      <stop offset=".78" stop-color="#fdf9f3"/>
      <stop offset=".82" stop-color="#fbf2e4"/>
      <stop offset=".85" stop-color="#f8e9ce"/>
      <stop offset=".88" stop-color="#f5dcb2"/>
      <stop offset=".91" stop-color="#f1cd90"/>
      <stop offset=".94" stop-color="#ebba67"/>
      <stop offset=".97" stop-color="#e6a538"/>
      <stop offset="1" stop-color="#df8d04"/>
      <stop offset="1" stop-color="#df8c00"/>
    </radialGradient>
  </defs>
  <g class="st0">
    <g id="Layer_11" data-name="Layer_1">
      <g>
        <path class="st3" d="M262.68,112.21c-.69-7.12-2.53-16.07-5.96-19.05-3.44-2.99-11.48-6.88-11.48-6.88l-16.75-28.32s-10.33-27.07-11.94-28.69c0,0,11.02,1.15,12.62.92,1.61-.23,0-18.12,0-18.12,0,0-15.15-2.53-24.56-2.07-9.41.46-17.67-1.83-17.67-1.83,0,0-5.96-5.5-13.08-3.9,0,0-4.25-3.39-7.92,1.31,0,0-28.84-4.27-39.58,2.79,0,0-.3,17.36.74,18.54,1.03,1.17,17.66-4.85,17.66-4.85,0,0-6.41,10.68-9.52,17.67-3.1,6.99-17.96,36.35-26.55,46.33,0,0-11.24,6.2-13.08,11.02-1.83,4.82-4.82,27.77-3.67,28.46,0,0,3.67,19.28,6.88,26.39,3.21,7.12,13.08,34.88,13.08,34.88,0,0,87.67,4.13,131.27.46,0,0,19.05-51.41,19.97-61.73,0,0,.23-6.2-.46-13.31h-.01ZM189.34,99.84c-9.36,4.56-12.4,4.3-29.09-4.3-16.7-8.6-38.7-10.88-38.7-10.88,2.03-1.77,16.95-29.67,19.98-37,3.04-7.34,9.61-23.02,9.61-23.02,0,0-3.76,23.34-4.61,28.36-.83,5.01-5.02,16.76-6.7,20.27s-.5,2.85,1.67,2.85,13.91-4.29,18.59-6.47c4.68-2.18,5.79-10.11,5.79-12.12s1.2-17.79,1.2-21.97,2.29-17.95,2.29-17.95c1.45-.39,3.12-1.11,3.12-1.11.38,1.34,7.45,2.34,7.45,2.34,0,0,5.23,28.78,5.49,30.55.26,1.77,3.87,16.57,4.89,16.83s12.31-4.57,14.84-10.13-7.6-19.72-7.6-19.72l-8.97-18.28c24.79,9.36,30.1,37.19,30.1,37.19l14.92,29.91c-11.88,0-34.91,10.11-44.27,14.67h-.01Z"/>
        <path class="st3" d="M117.92,203.24s34.85,15.29,122.49,0c0,0,35.11,68.18,32.08,105.79,0,0,.25.97.25,5.58s1.27,11.16-4.55,17.71c-5.81,6.55-12.62,17.96-44.7,23.05-32.08,5.1-39.15-3.88-39.15-3.88,0,0-3.72-10.66-5.38-9.94s-2.97,2.68-3.89,6.42-1.3,6.25-8.17,7.67c-6.87,1.43-24.51,2.49-45.49-3.39-20.98-5.88-33.79-21.76-34.17-27.65s.52-17.87.54-17.23-4.15-37.96,30.14-104.13h0Z"/>
        <path class="st6" d="M164.39,6.81s-6.11,5.33-7.67,9.33c0,0-6.34.89-9.89-1.33s-11.67-2.77-11-3.45,12.45,2.44,14.79,2.22,9.23-1.66,2.77-2.44c-6.44-.78-5.56-2.44-1.33-2.22s10.44,1.33,9.67-.22-2.22-2.34,2.67-1.89Z"/>
        <path class="st6" d="M152.04,17.6l-24,8.12s10.34-.78,24-8.12Z"/>
        <path class="st6" d="M172.39,9.37s-3.12,4-3,8.22c0,0,2.22,0,3.12-1.11,0,0,2.89,2.11,7.45,2.34,0,0-.78-7.89-1.11-9.11,0,0-5,3.55-6.44-.33h-.01Z"/>
        <path class="st6" d="M166.5,10.11s-6.02,24.51-3.76,45.87c0,0-11.88-33.54,3.76-45.87Z"/>
        <path class="st6" d="M184.73,16.91s2.37,1.88,2.12,10.74c-.25,8.86,1.99,18.49,1.99,18.49,0,0-.5-11.12,0-16.36.5-5.25-.37-10.61-4.12-12.87Z"/>
        <path class="st6" d="M128.28,12.42l.62,8.82c.06.98,1.03,1.63,1.96,1.34l10.66-3.31s-11.24.25-13.24-6.87h0Z"/>
        <path class="st6" d="M180.75,9.55l4.45-2.18s.39,3.76-4.45,2.18Z"/>
        <path class="st6" d="M192.18,17.9s22.22,7.12,28.26,32.58c0,0-3.02-29.12-28.26-32.58Z"/>
        <path class="st6" d="M187.28,12.92s7.22-1.78,9.33-1.33,5.33,4,9.78,7,16.45,10.11,19.34,10.67-6.89.11-10.34-.89-14.11-7.12-16.23-8.78-11.89-6.67-11.89-6.67Z"/>
        <path class="st6" d="M149.25,20.87s-.91-.52-3.38,2.6-17.27,31.54-25.07,56.68c0,0,20.46-47.44,28.45-59.28Z"/>
        <path class="st5" d="M121.97,87.15s-18.48,0-25.3,11.22l-1.54,14.96s6.38-7.7,11.22-7.92c0,0-1.76-12.1,15.62-18.26Z"/>
        <path class="st6" d="M219.88,90.67s23.98-8.36,34.77,3.96c0,0-7.04-8.8-34.77-3.96Z"/>
        <path class="st6" d="M177.85,104.75l18.04,18.48s-11.22-16.72-18.04-18.48Z"/>
        <path class="st6" d="M174.2,105.69l-8.97,13.21s9.29-8.48,8.97-13.21Z"/>
        <ellipse class="st4" cx="168.75" cy="227.63" rx="7.06" ry="6.78"/>
        <ellipse class="st4" cx="166.66" cy="255.64" rx="7.06" ry="6.27"/>
        <ellipse class="st4" cx="165.46" cy="281.23" rx="7.06" ry="5.68"/>
        <ellipse class="st4" cx="165.26" cy="305.8" rx="7.06" ry="5.54"/>
        <ellipse class="st4" cx="165.46" cy="328.61" rx="7.09" ry="5.27"/>
        <ellipse class="st4" cx="137.37" cy="327.54" rx="6.63" ry="5.2"/>
        <ellipse class="st4" cx="150.8" cy="315.98" rx="6.63" ry="5.2"/>
        <ellipse class="st4" cx="119.5" cy="314.14" rx="5.21" ry="6.63" transform="translate(-210.49 377.92) rotate(-80.11)"/>
        <ellipse class="st4" cx="135.33" cy="302.3" rx="5.21" ry="6.63" transform="translate(-185.72 383.72) rotate(-80.11)"/>
        <ellipse class="st4" cx="150.69" cy="291.39" rx="5.21" ry="7.46" transform="translate(-163.28 386.46) rotate(-79.5)"/>
        <ellipse class="st4" cx="151.56" cy="265.9" rx="5.21" ry="7" transform="translate(-137.02 367.83) rotate(-79.77)"/>
        <ellipse class="st4" cx="135.14" cy="276.61" rx="5.65" ry="7.25" transform="translate(-160.66 361.9) rotate(-80.04)"/>
        <ellipse class="st4" cx="118.1" cy="287.09" rx="5.65" ry="7.3" transform="translate(-185.15 353.5) rotate(-79.99)"/>
        <ellipse class="st4" cx="137.14" cy="250.09" rx="6.54" ry="7.31" transform="translate(-129 352.68) rotate(-82.34)"/>
        <ellipse class="st4" cx="152.45" cy="239.79" rx="6.81" ry="7.31" transform="translate(-100.3 369.61) rotate(-84.74)"/>
        <ellipse class="st4" cx="139.55" cy="223.09" rx="6.56" ry="7.31" transform="translate(-99.92 332.16) rotate(-82.46)"/>
        <ellipse class="st4" cx="122.36" cy="233.32" rx="6.17" ry="6.46" transform="translate(-114.36 348.99) rotate(-88.37)"/>
        <ellipse class="st4" cx="108.61" cy="244.59" rx="6.17" ry="6.46" transform="translate(-138.98 346.19) rotate(-88.37)"/>
        <ellipse class="st4" cx="119.06" cy="260.8" rx="6.17" ry="6.46" transform="translate(-145.03 372.38) rotate(-88.37)"/>
        <ellipse class="st4" cx="102.94" cy="270.89" rx="5.43" ry="6.45" transform="translate(-180.85 329.56) rotate(-80.87)"/>
        <ellipse class="st4" cx="103.29" cy="298.3" rx="5.63" ry="6.45" transform="translate(-206.91 356.89) rotate(-81.6)"/>
        <ellipse class="st4" cx="199.44" cy="227.63" rx="7.06" ry="6.78"/>
        <ellipse class="st4" cx="201.53" cy="255.64" rx="7.06" ry="6.27"/>
        <ellipse class="st4" cx="199.1" cy="281.23" rx="7.06" ry="5.68"/>
        <ellipse class="st4" cx="198.33" cy="306.27" rx="7.06" ry="5.54"/>
        <ellipse class="st4" cx="195.71" cy="328.84" rx="7.09" ry="5.27"/>
        <ellipse class="st4" cx="223.8" cy="331.26" rx="6.63" ry="5.2"/>
        <ellipse class="st4" cx="212.07" cy="318.08" rx="6.63" ry="5.2"/>
        <ellipse class="st4" cx="241.93" cy="318.97" rx="6.63" ry="5.21" transform="translate(-51.18 46.28) rotate(-9.89)"/>
        <ellipse class="st4" cx="227.98" cy="306.92" rx="6.63" ry="5.21" transform="translate(-49.31 43.7) rotate(-9.89)"/>
        <ellipse class="st4" cx="213.47" cy="294.37" rx="7.46" ry="5.21" transform="translate(-50.07 43.83) rotate(-10.5)"/>
        <ellipse class="st4" cx="215.2" cy="268.17" rx="7" ry="5.21" transform="translate(-44.2 42.48) rotate(-10.23)"/>
        <ellipse class="st4" cx="231.62" cy="279.24" rx="7.25" ry="5.65" transform="translate(-44.79 44.25) rotate(-9.96)"/>
        <ellipse class="st4" cx="245.29" cy="292.38" rx="7.3" ry="5.65" transform="translate(-47.07 47.07) rotate(-10.01)"/>
        <ellipse class="st4" cx="231.07" cy="250.05" rx="7.31" ry="6.54" transform="translate(-31.27 33.03) rotate(-7.66)"/>
        <ellipse class="st4" cx="215.77" cy="239.74" rx="7.31" ry="6.81" transform="translate(-21.07 20.79) rotate(-5.26)"/>
        <ellipse class="st4" cx="228.65" cy="223.05" rx="7.31" ry="6.56" transform="translate(-27.3 31.94) rotate(-7.54)"/>
        <ellipse class="st4" cx="244.88" cy="236.31" rx="6.46" ry="6.17" transform="translate(-6.63 7.07) rotate(-1.63)"/>
        <ellipse class="st4" cx="246.74" cy="264.48" rx="6.46" ry="6.17" transform="translate(-7.43 7.14) rotate(-1.63)"/>
        <ellipse class="st4" cx="258.01" cy="303.89" rx="6.45" ry="5.63" transform="translate(-41.64 40.97) rotate(-8.4)"/>
        <ellipse class="st4" cx="183.97" cy="243.34" rx="7.06" ry="6.13"/>
        <ellipse class="st4" cx="183.01" cy="270" rx="7.06" ry="6.05"/>
        <ellipse class="st4" cx="181.99" cy="295.32" rx="7.06" ry="6.41"/>
        <ellipse class="st4" cx="180.69" cy="319.08" rx="7.06" ry="5.85"/>
        <path class="st4" d="M184.46,339.14c0-3.21-2.71-5.82-6.06-5.82s-6.06,2.61-6.06,5.82c0,2.47,1.61,4.57,3.88,5.41.76-1.59,1.67-2.56,2.73-3.01.61-.26,1.49.98,2.35,2.67,1.87-.99,3.15-2.88,3.15-5.08h0Z"/>
        <circle class="st4" cx="175.83" cy="154.54" r="7.14"/>
        <circle class="st4" cx="191.62" cy="171.19" r="7.14"/>
        <circle class="st4" cx="160.4" cy="171.19" r="7.14"/>
        <ellipse class="st4" cx="132.15" cy="173.88" rx="6.67" ry="6.08"/>
        <ellipse class="st4" cx="221.46" cy="174.86" rx="6.67" ry="6.08"/>
        <circle class="st4" cx="177.77" cy="123.4" r="7.14"/>
        <path class="st4" d="M160.7,149.13c3.94,0,7.14-3.19,7.14-7.14,0-2.99-1.83-5.55-4.45-6.6-1.98,3.77-4.53,7.94-7.63,11.75,1.28,1.24,3.02,1.99,4.94,1.99h0Z"/>
        <path class="st4" d="M145.34,166.21c3.94,0,7.14-3.19,7.14-7.14,0-2.34-1.13-4.41-2.86-5.71-3.37,2.76-7.17,4.85-11.4,5.71,0,3.94,3.19,7.14,7.14,7.14h-.01Z"/>
        <path class="st4" d="M114.33,160.09c0,3.28,2.66,5.93,5.93,5.93s5.93-2.66,5.93-5.93c0-.29-.04-.57-.09-.85-3.67-.64-7.01-1.88-9.97-3.39-1.11,1.08-1.8,2.58-1.8,4.25Z"/>
        <path class="st4" d="M191.7,132.23c-3.94,0-7.14,3.19-7.14,7.14s3.19,7.14,7.14,7.14c2.53,0,4.75-1.32,6.02-3.31-2.4-3.8-4.22-7.65-5.57-10.93-.15,0-.3-.02-.45-.02h0Z"/>
        <path class="st4" d="M204.01,151.29c-2.23,1.21-3.74,3.56-3.74,6.27,0,3.94,3.19,7.14,7.14,7.14,3.54,0,6.46-2.58,7.03-5.95-4.02-1.79-7.48-4.42-10.42-7.46Z"/>
        <path class="st4" d="M230.34,163.19c0,3.34,2.71,6.05,6.05,6.05s6.05-2.71,6.05-6.05c0-1.23-.37-2.37-1-3.33-3.01.82-6.57,1.38-10.77,1.48-.19.59-.32,1.19-.32,1.85h0Z"/>
        <ellipse class="st4" cx="224.93" cy="129.47" rx="8.35" ry="7.14"/>
        <ellipse class="st4" cx="239.89" cy="146.28" rx="8.35" ry="7.14"/>
        <path class="st4" d="M176.7,180.06c-3.94,0-7.14,3.19-7.14,7.14,0,.47.05.93.14,1.37,4.58.07,9.26.14,13.96.17.11-.5.17-1.01.17-1.54,0-3.94-3.19-7.14-7.14-7.14Z"/>
        <path class="st4" d="M145.56,180.71c-3.93,0-7.1,3.17-7.14,7.09,4.4.14,9.19.28,14.25.41,0-.12.02-.25.02-.36,0-3.94-3.19-7.14-7.14-7.14Z"/>
        <path class="st6" d="M114.82,181.2s80.64,1.73,103.73,0c0,0-66.51,5.17-103.73,0Z"/>
        <path class="st4" d="M206.12,181.43c-3.94,0-7.14,3.19-7.14,7.14v.19c4.83-.02,9.6-.07,14.26-.16v-.03c0-3.94-3.19-7.14-7.14-7.14h.01Z"/>
        <path class="st4" d="M119.89,180.42c-2.98,0-5.43,2.85-5.7,6.48,2.3.1,6.24.27,11.4.46-.09-3.85-2.6-6.93-5.71-6.93Z"/>
        <path class="st4" d="M234.22,183.09c-2.58,0-4.76,2.13-5.47,5.06,3.78-.16,7.38-.36,10.76-.61-.85-2.61-2.9-4.45-5.29-4.45h0Z"/>
        <path class="st4" d="M116.1,173.78c0-3.36-2.99-6.08-6.67-6.08-1.5,0-2.89.46-4,1.23,1.44,3.9,2.85,7.79,3.99,10.92h.02c3.68,0,6.67-2.72,6.67-6.08h-.01Z"/>
        <path class="st4" d="M237.72,176.16c0,3.36,2.99,6.08,6.67,6.08.21,0,.43-.01.64-.03.99-2.73,2.31-6.39,3.8-10.57-1.18-.96-2.73-1.56-4.45-1.56-3.68,0-6.67,2.72-6.67,6.08h.01Z"/>
        <path class="st4" d="M106.41,158.21c0-3.2-2.59-5.8-5.8-5.8-.51,0-1,.09-1.47.21,1.02,2.38,2.55,6.3,4.19,10.68,1.82-.98,3.07-2.88,3.07-5.09h.01Z"/>
        <path class="st4" d="M249.36,162.33c0,1.54.49,2.94,1.31,4.11,1.24-3.51,2.52-7.22,3.78-10.95-2.94.87-5.09,3.61-5.09,6.84h0Z"/>
        <path class="st4" d="M257.09,123.6c-3.06,0-5.55,3.19-5.55,7.14s2.49,7.14,5.55,7.14c1.34,0,2.57-.61,3.53-1.63.79-2.7,1.43-5.1,1.88-7.06-.55-3.19-2.76-5.58-5.41-5.58h0Z"/>
        <circle class="st4" cx="152.98" cy="130.42" r="7.14"/>
        <ellipse class="st4" cx="118.08" cy="137.22" rx="7.14" ry="6.02"/>
        <ellipse class="st4" cx="101.81" cy="122.94" rx="5.65" ry="7.14"/>
        <ellipse class="st4" cx="141.07" cy="147.05" rx="7.14" ry="5.86"/>
        <path class="st4" d="M225.03,159.82c.2-.74.32-1.49.32-2.29,0-4.72-3.83-8.54-8.54-8.54-3.57,0-6.64,2.2-7.9,5.31,1.62,1.08,3.35,1.98,5.18,2.69,3.81,1.46,7.49,2.35,10.95,2.84h0Z"/>
        <path class="st4" d="M208.41,139.16c0-4.5-3.65-8.14-8.14-8.14-2.91,0-5.46,1.54-6.9,3.83,2.04,4.2,4.62,8.57,7.83,12.41,4.05-.46,7.21-3.9,7.21-8.09h0Z"/>
        <path class="st4" d="M135.07,159.45c-.76-3.13-3.56-5.45-6.92-5.45-2.9,0-5.39,1.73-6.51,4.21,1.42.44,2.9.79,4.47,1.03,3.28.51,6.26.53,8.96.21h0Z"/>
        <path class="st4" d="M114.32,154.92c.64-1.07,1.01-2.31,1.01-3.66,0-3.94-3.19-7.14-7.14-7.14-1.61,0-3.09.54-4.29,1.44,2.65,3.35,6.08,6.73,10.41,9.35h0Z"/>
        <path class="st4" d="M237.75,110.54c-.53,1.11-.84,2.37-.84,3.7,0,4.49,3.42,8.13,7.65,8.13s7.65-3.64,7.65-8.13c0-1.12-.21-2.19-.6-3.16-4.8-1.53-10.12-1.15-13.85-.54h-.01Z"/>
        <path class="st4" d="M123.84,116.49c0,3.94,3.19,7.14,7.14,7.14s7.14-3.19,7.14-7.14c0-1.46-.44-2.82-1.19-3.95-2.61-1.17-5.57-2.05-8.6-2.68-2.62,1.06-4.48,3.62-4.48,6.61h0Z"/>
        <path class="st6" d="M160.69,124.99s-24.64-17.6-42.02-18.7c-17.38-1.1-23.11,12.98-23.11,12.98,0,0,9.02-13.2,23.11-11.22,14.08,1.98,42.02,16.94,42.02,16.94Z"/>
        <path class="st6" d="M201.83,121.47s29.49-13.86,43.34-11.66,16.72,7.48,17.16,10.79c0,0-4.18-8.8-17.83-9.9-11.64-.94-42.68,10.79-42.68,10.79h0Z"/>
        <path class="st6" d="M166.69,128.32s-7.72,20.59-18.81,25.54c0,0,9.71-7.72,18.81-25.54Z"/>
        <path class="st6" d="M97.98,134.85s5.34,23.96,34.65,24.56c0,0-28.91,3.96-34.65-24.56Z"/>
        <path class="st6" d="M208.87,160.19s13.07,7.33,31.88,3.37c0,0-16.63,7.13-31.88-3.37Z"/>
        <path class="st5" d="M88.78,311.35s-.46,11,.59,14.02,7.34,10.23,8.91,11.41c0,0,2.1-7.72,9.95-6.87,0,0-14.04-5.64-19.45-18.56Z"/>
        <path class="st6" d="M171.15,344.13s-39.15-5.47-52.12-11.59c0,0,18.43,10.06,52.12,11.59Z"/>
        <path class="st6" d="M173.84,351.46l1.48-7.55s-2.21,0-1.48,7.55Z"/>
        <path class="st5" d="M271.97,311.78s-.88,10.57-1.92,13.59-7.34,10.23-8.91,11.41c0,0-2.1-7.72-9.95-6.87,0,0,15.37-5.2,20.78-18.12Z"/>
        <path class="st6" d="M188.27,344.13s39.15-5.47,52.12-11.59c0,0-18.43,10.06-52.12,11.59Z"/>
        <path class="st6" d="M184.98,350.94l-2.63-7.26s2.18-.31,2.63,7.26Z"/>
        <path class="st4" d="M157.68,339.15c0-2.91-3.18-5.27-7.09-5.27-3.18,0-5.87,1.55-6.77,3.69,5.64,1.06,10.14,1.91,13.73,2.57.08-.32.13-.65.13-.98h0Z"/>
        <path class="st4" d="M113.22,328.1c1.25-2.61-.44-5.92-3.77-7.38-2.93-1.3-6.16-.72-7.74,1.23,3.17,2.4,6.84,4.74,11.07,6.83.16-.21.32-.43.43-.68h0Z"/>
        <path class="st4" d="M98.86,313.63c1.76-2.46.81-6.04-2.12-7.98-2.94-1.95-6.76-1.52-8.52.95-.18.24-.31.51-.43.78,1.6,2.38,3.86,5.3,6.9,8.4,1.68-.09,3.23-.81,4.18-2.14h-.01Z"/>
        <path class="st4" d="M207.18,335.5c-3.92,0-7.09,2.36-7.09,5.27,0,.34.05.69.14,1.01,3.99-.35,8.75-.93,13.94-1.89-.56-2.49-3.47-4.4-6.99-4.4h0Z"/>
        <path class="st4" d="M264.68,314.59c-1.6-.56-3.58-.52-5.46.3-3.32,1.47-5.01,4.78-3.77,7.38.12.25.28.47.44.69,3.19-2.46,6.15-5.24,8.78-8.38h0Z"/>
        <path class="st6" d="M87.3,304.45s2.78,17,30.29,26.25c0,0-17.32-4.92-30.29-26.25h0Z"/>
        <path class="st4" d="M113.58,222.66c3.49.7,6.91-1.43,7.64-4.77.73-3.34-1.52-6.6-5.01-7.3-.65-.13-1.31-.16-1.94-.11-1.63,3.32-3.17,6.56-4.6,9.73.91,1.21,2.27,2.11,3.92,2.44h0Z"/>
        <path class="st4" d="M95.24,287.84c1.76-2.46.81-6.04-2.12-7.98-.89-.59-1.85-.92-2.81-1.1-.77,4.03-1.34,7.68-1.73,10.89,2.53.8,5.26.16,6.67-1.82h-.01Z"/>
        <path class="st4" d="M99.86,258.7c1.76-2.46.81-6.04-2.12-7.98-.01,0-.03-.01-.04-.02-1.16,3.52-2.2,6.91-3.1,10.12,2.09.22,4.12-.5,5.28-2.11h-.01Z"/>
        <path class="st4" d="M108.7,232.26c1.55-2.17.99-5.2-1.17-7.22-1.39,3.2-2.69,6.33-3.91,9.37,2.02.15,3.96-.58,5.07-2.14h.01Z"/>
        <path class="st4" d="M154.65,217.47c3.89,0,7.06-3.03,7.06-6.78,0-.26-.02-.53-.05-.78-5.1-.15-9.71-.44-13.87-.8-.13.51-.2,1.03-.2,1.58,0,3.74,3.16,6.78,7.06,6.78Z"/>
        <path class="st4" d="M129,213.4c3.29,0,5.95-2.57,5.95-5.72,0-.06-.02-.12-.02-.18-4.79-.79-8.51-1.65-11.23-2.38-.41.77-.65,1.63-.65,2.57,0,3.16,2.67,5.72,5.95,5.72Z"/>
        <path class="st4" d="M244.06,221.62c.7,3.17,3.83,5.25,7.16,4.84-1.75-4.06-3.4-7.73-4.87-10.9-1.84,1.41-2.8,3.72-2.29,6.06Z"/>
        <path class="st4" d="M253.59,248.67c.73,3.34,4.15,5.47,7.64,4.77.17-.03.34-.08.51-.13-1.38-3.96-2.82-7.86-4.27-11.6-2.83,1.12-4.52,4.02-3.87,6.97h0Z"/>
        <path class="st4" d="M262.89,267.65c-3.49.7-5.81,3.65-5.17,6.58s3.99,4.74,7.48,4.04c1.4-.28,2.61-.93,3.51-1.78-.71-2.88-1.49-5.78-2.33-8.68-1.08-.3-2.27-.39-3.49-.14h0Z"/>
        <path class="st4" d="M269.03,285.42c-2.94,1.95-3.89,5.52-2.12,7.98,1.15,1.61,3.19,2.33,5.28,2.11-.37-3.5-.93-7.13-1.66-10.83-.51.19-1.01.43-1.5.74h0Z"/>
        <path class="st4" d="M213.54,217.47c3.89,0,7.06-3.03,7.06-6.78,0-1.58-.57-3.03-1.51-4.18-4.14.55-8.14,1.02-12,1.43-.39.84-.61,1.77-.61,2.76,0,3.74,3.16,6.78,7.06,6.78h0Z"/>
        <path class="st4" d="M236.04,213.86c3.29,0,5.95-2.57,5.95-5.72,0-1.97-1.03-3.7-2.61-4.74-2.75.48-5.46.92-8.12,1.34-.74.95-1.18,2.12-1.18,3.4,0,3.16,2.67,5.72,5.95,5.72h0Z"/>
        <path class="st4" d="M184.69,220.85c3.89,0,7.06-3.03,7.06-6.78,0-1.82-.75-3.46-1.95-4.67-3.7.22-7.26.39-10.65.5-.94,1.16-1.51,2.61-1.51,4.18,0,3.74,3.16,6.78,7.06,6.78h-.01Z"/>
        <path class="st6" d="M272.12,304.45s-3.43,17.49-30.27,25.87c0,0,20.95-7.46,30.27-25.87Z"/>
        <path class="st6" d="M118.79,209.16s40.97,9.29,74.99,4.45c0,0-41.74,7.8-74.99-4.45Z"/>
        <path class="st6" d="M188.27,120.99s8.72,28.12,20.4,33.07c0,0-9.3-4.56-20.4-33.07Z"/>
        <path class="st2" d="M117.92,203.24s34.85,15.29,122.49,0c0,0,35.11,68.18,32.08,105.79,0,0,.25.97.25,5.58s1.27,11.16-4.55,17.71c-5.81,6.55-12.62,17.96-44.7,23.05-32.08,5.1-39.15-3.88-39.15-3.88,0,0-3.72-10.66-5.38-9.94s-2.97,2.68-3.89,6.42-1.3,6.25-8.17,7.67c-6.87,1.43-24.51,2.49-45.49-3.39-20.98-5.88-33.79-21.76-34.17-27.65s.52-17.87.54-17.23-4.15-37.96,30.14-104.13h0Z"/>
        <path class="st1" d="M262.68,112.21c-.69-7.12-2.53-16.07-5.96-19.05-3.44-2.99-11.48-6.88-11.48-6.88l-16.75-28.32s-10.33-27.07-11.94-28.69c0,0,11.02,1.15,12.62.92,1.61-.23,0-18.12,0-18.12,0,0-15.15-2.53-24.56-2.07-9.41.46-17.67-1.83-17.67-1.83,0,0-5.96-5.5-13.08-3.9,0,0-4.25-3.39-7.92,1.31,0,0-28.84-4.27-39.58,2.79,0,0-.3,17.36.74,18.54,1.03,1.17,17.66-4.85,17.66-4.85,0,0-6.41,10.68-9.52,17.67-3.1,6.99-17.96,36.35-26.55,46.33,0,0-11.24,6.2-13.08,11.02-1.83,4.82-4.82,27.77-3.67,28.46,0,0,3.67,19.28,6.88,26.39,3.21,7.12,13.08,34.88,13.08,34.88,0,0,87.67,4.13,131.27.46,0,0,19.05-51.41,19.97-61.73,0,0,.23-6.2-.46-13.31h-.01ZM189.34,99.84c-9.36,4.56-12.4,4.3-29.09-4.3-16.7-8.6-38.7-10.88-38.7-10.88,2.03-1.77,16.95-29.67,19.98-37,3.04-7.34,9.61-23.02,9.61-23.02,0,0-3.76,23.34-4.61,28.36-.83,5.01-5.02,16.76-6.7,20.27s-.5,2.85,1.67,2.85,13.91-4.29,18.59-6.47c4.68-2.18,5.79-10.11,5.79-12.12s1.2-17.79,1.2-21.97,2.29-17.95,2.29-17.95c1.45-.39,3.12-1.11,3.12-1.11.38,1.34,7.45,2.34,7.45,2.34,0,0,5.23,28.78,5.49,30.55.26,1.77,3.87,16.57,4.89,16.83s12.31-4.57,14.84-10.13-7.6-19.72-7.6-19.72l-8.97-18.28c24.79,9.36,30.1,37.19,30.1,37.19l14.92,29.91c-11.88,0-34.91,10.11-44.27,14.67h-.01Z"/>
      </g>
    </g>
  </g>
</svg>